<svg width="28" height="23" viewBox="0 0 28 23" fill="none" xmlns="http://www.w3.org/2000/svg">
<path d="M0 1.65714C0 0.741928 0.741928 0 1.65714 0H12.5143C13.8871 0 15 1.11289 15 2.48571V3H0V1.65714Z" fill="#919191"/>
<g clip-path="url(#clip0_893_1721)">
<path d="M0 3H24.6857C26.5161 3 28 4.48386 28 6.31429V20.9286C28 22.0726 27.0726 23 25.9286 23H2.07143C0.927409 23 0 22.0726 0 20.9286V3Z" fill="#919191"/>
<g filter="url(#filter0_d_893_1721)">
<path d="M0 8.07143C0 6.92741 0.92741 6 2.07143 6H25.9286C27.0726 6 28 6.92741 28 8.07143V26H0L0 8.07143Z" fill="#DFDFDF"/>
</g>
</g>
<defs>
<filter id="filter0_d_893_1721" x="-3.31429" y="3.51429" width="34.6286" height="26.6286" filterUnits="userSpaceOnUse" color-interpolation-filters="sRGB">
<feFlood flood-opacity="0" result="BackgroundImageFix"/>
<feColorMatrix in="SourceAlpha" type="matrix" values="0 0 0 0 0 0 0 0 0 0 0 0 0 0 0 0 0 0 127 0" result="hardAlpha"/>
<feOffset dy="0.828571"/>
<feGaussianBlur stdDeviation="1.65714"/>
<feComposite in2="hardAlpha" operator="out"/>
<feColorMatrix type="matrix" values="0 0 0 0 0 0 0 0 0 0 0 0 0 0 0 0 0 0 0.32 0"/>
<feBlend mode="normal" in2="BackgroundImageFix" result="effect1_dropShadow_893_1721"/>
<feBlend mode="normal" in="SourceGraphic" in2="effect1_dropShadow_893_1721" result="shape"/>
</filter>
<clipPath id="clip0_893_1721">
<path d="M0 3H24.6857C26.5161 3 28 4.48386 28 6.31429V20.9286C28 22.0726 27.0726 23 25.9286 23H2.07143C0.927409 23 0 22.0726 0 20.9286V3Z" fill="white"/>
</clipPath>
</defs>
</svg>
